<svg xmlns="http://www.w3.org/2000/svg" viewBox="0 0 229.1 229.1"><defs><style>.cls-1{fill:#fff}</style></defs><g id="Layer_2" data-name="Layer 2"><g id="Layer_1-2" data-name="Layer 1"><path class="cls-1" d="M225.73 3.37a11.5 11.5 0 00-16.26 0L3.37 209.47a11.5 11.5 0 0016.26 16.26l206.1-206.1a11.5 11.5 0 000-16.26zM218.08 106.92a11.51 11.51 0 00-16.27 0l-94.89 94.89a11.5 11.5 0 0016.26 16.27l94.9-94.9a11.5 11.5 0 000-16.26zM121.8 10.65a11.5 11.5 0 00-16.26 0l-94.89 94.89a11.5 11.5 0 0016.26 16.26l94.89-94.89a11.49 11.49 0 000-16.26z"/></g></g></svg>