<svg xmlns="http://www.w3.org/2000/svg" viewBox="0 0 356.62 356.62"><g data-name="Layer 2"><path d="M178.31 0a178.31 178.31 0 10178.31 178.31A178.31 178.31 0 00178.31 0zm.69 243H79.86a5.43 5.43 0 01-5.43-5.43V120.06a5.18 5.18 0 015.19-5.18h52a40.16 40.16 0 0140.2 40.12v1.89a39.76 39.76 0 01-22.66 35.89l-.23.1L182.42 236a4.3 4.3 0 01-3.42 7zm116.14-38.6a38.49 38.49 0 01-38.49 38.49h-62.07v-128h56.19A33.18 33.18 0 01284 148.05v4.14a29.81 29.81 0 01-7.8 20.11 31.88 31.88 0 0119 29.16z" fill="#fff" data-name="Layer 1"/></g></svg>