<svg xmlns="http://www.w3.org/2000/svg" viewBox="0 0 843.36 974.23"><defs></defs><g id="Layer_2" data-name="Layer 2"><g id="Layer_1-2" data-name="Layer 1"><path  d="M421.91 608.3q1.27-5.13 2.8-10.14c-1.1 2.69-2.06 5.06-2.86 7.1.02 1.01.03 2.03.06 3.04zM421.47 608.35v-2.21l-.34.88c.14.44.23.89.34 1.33z"/><path d="M418.58 0C300.42 0 204.64 95.78 204.64 213.94c0 45.3 14.68 127.4 70.21 182.94 23.8 23.8 57.41 55.14 73.92 80.79a817.474 817.474 0 0123.5 38.87 213.39 213.39 0 00-158.33-70C95.79 446.49 0 542.27 0 660.43s95.79 213.94 213.94 213.94A213.82 213.82 0 00399 767.7C344.54 952.42 207.64 972 166.75 973.59h414.68l-162.85-1.06z" fill="#acaedf"/><path d="M166.75 973.59H155s4.3.29 11.75 0z"/><path fill="#7f90cf"  d="M680.67 974.23l-.09-.64h-99.15l99.24.64zM629.42 874.37c118.16 0 213.94-95.79 213.94-213.94s-95.78-213.94-213.94-213.94a213.72 213.72 0 00-179.18 97.09c10.15-19.59 22.9-42.19 38.49-66.44 16.4-25.49 49.78-56.46 73.58-80.26 55.54-55.54 70.21-137.64 70.21-182.94C632.52 95.78 536.74 0 418.58 0v972.53l162.85 1.06h99.15c-17.17-.2-173.43-7.43-234.55-203a213.82 213.82 0 00183.39 103.78zm-207.95-266c-.11-.44-.2-.89-.31-1.33l.34-.88zm.44-.05c0-1 0-2-.06-3 .8-2 1.76-4.41 2.86-7.1q-1.51 4.95-2.8 10.08zM682.13 973.59z"/></g></g></svg>