<svg xmlns="http://www.w3.org/2000/svg" viewBox="0 0 832.81 970.42"><g data-name="Layer 2"><g data-name="Layer 1"><path d="M187 350.3C-54.89 542.54 7.13 703.77 7.13 703.77S25.73 877.4 205.56 877.4c153.51 0 185-90.31 190.94-116.77-7.05 34.47-47.59 182.43-228.14 209.79h248V0C414.93 37.76 395.12 184.84 187 350.3z" fill="#acaedf"/><path d="M645.85 350.3C437.69 184.84 417.88 37.76 416.4 0v970.42h248.05c-180.57-27.36-221.1-175.34-228.14-209.8 5.93 26.45 37.41 116.78 190.94 116.78 179.83 0 198.43-173.63 198.43-173.63S887.7 542.54 645.85 350.3z" fill="#7f90cf"/></g></g></svg>