<?xml version="1.0" encoding="UTF-8"?>
<svg id="Layer_2" data-name="Layer 2" xmlns="http://www.w3.org/2000/svg" viewBox="0 0 1720.42 356.78">
  <defs>
    <style>
      .cls-1 {
        fill: #ec3338;
      }
    </style>
  </defs>
  <g id="Layer_1-2" data-name="Layer 1">
    <g>
      <path class="cls-1" d="M422.03,93.28c-47.61,28.05-93.9,55.32-140.2,82.6-.44-.3-.88-.61-1.31-.91,23.82-39.89,47.64-79.77,71.78-120.19-16.25-11.19-33.76-18.01-52.8-20.31-89.56-10.8-168.57,62.89-162.78,152.82,3.51,54.51,44.86,119.66,112.56,131.97,47.61,8.65,117.72-6.89,151.07-60.83,.33-.54,.87-.95,1.84-1.99,2.7,5.79,5.53,11.04,7.52,16.59,.57,1.6-.71,4.6-2.09,6.03-6.18,6.38-12.52,12.62-19.13,18.55-42.38,38.09-92.78,55.72-149.09,58.75-59.34,3.2-114.34-11.46-165.47-40.57-35.37-20.15-61.6-48.99-69.98-89.97C-10.26,156.37,11.54,63.9,108.08,22.9,155.11,2.92,204.35-2.55,254.91,1.02c57.35,4.06,106.08,26.8,146.18,67.88,7.18,7.36,13.46,15.61,20.94,24.37Z"/>
      <path class="cls-1" d="M907.13,345.94h-107.21V113.54h-62.61c.06-.91-.07-1.64,.14-1.76,32.61-18.96,65.65-37.08,102.19-47.43,8.4-2.38,17.61-3.89,26.21-3.12,21.37,1.93,32.47,16.58,39.31,35.34,.81,2.23,1.41,4.54,2.34,7.57,20.13-9.2,39.9-18.26,59.68-27.27,8.51-3.88,17.03-7.76,25.64-11.42,16.11-6.84,32.3-4.45,47.68,1.69,5.7,2.27,11.61,7.97,14.05,13.58,4.61,10.59,9.35,22.2,9.54,33.46,1.28,76.41,1.39,152.83,1.86,229.25,0,1.41-.21,2.82-.35,4.66h-105.83c-.14-2.99-.34-5.79-.38-8.59-.95-66.56-1.87-133.12-2.82-199.68-.25-17.39-6.8-24.58-22.58-24.98-15.88-.4-25.83,8.74-26.81,24.66-.13,2.16-.05,4.32-.05,6.49,0,64.17,0,128.33,0,192.5v7.45Z"/>
      <path class="cls-1" d="M1720.08,348.87h-105.7c-.16-2.04-.42-4.1-.45-6.16-.97-67.29-1.93-134.57-2.86-201.86-.23-16.96-7.1-24.75-22.6-25.43-15.27-.66-25.36,8.33-26.8,23.97-.24,2.62-.2,5.28-.2,7.92-.01,63.69,0,127.38,0,191.07v8.16h-106.97V114.26h-62.73c-.14-.49-.28-.99-.41-1.48,1.92-1.16,3.8-2.39,5.76-3.49,30.35-17.08,61-33.57,94.58-43.61,5.72-1.71,11.64-3.16,17.57-3.7,22.7-2.06,39.25,8.59,48.32,30.69,1.52,3.71,2.67,7.58,4.23,12.05,7.99-3.54,15.64-6.86,23.23-10.32,18.99-8.66,38.09-17.1,56.89-26.17,17.01-8.21,34.02-6.79,51.15-1.26,8.54,2.75,14.54,9.19,17.38,17.23,3.72,10.52,8.01,21.6,8.17,32.49,1.16,76.18,1.33,152.37,1.79,228.55,0,.93-.17,1.86-.34,3.62Z"/>
      <path class="cls-1" d="M765.92,348.71c-4.49,0-8.29-.05-12.08,0-27.41,.4-54.82,.74-82.22,1.34-4.31,.09-6.31-.99-7.54-5.42-3.97-14.22-8.52-28.28-13.16-43.4-2.44,2.58-4.24,4.39-5.93,6.28-36.04,40.24-106.36,58.19-156.43,40.19-44.92-16.14-65.06-60.68-65.56-94.94-.26-18.09,8.98-33.16,20.26-46.65,27.31-32.68,63.14-42.56,104.16-38.28,25.65,2.67,49.98,9.26,73.02,24.17-2.42-8.69-4.45-16.24-6.61-23.74-4.59-15.9-9.49-31.72-13.75-47.7-1.26-4.72-3.44-5.93-7.94-6.01-36.54-.67-73.08-1.56-109.62-2.34-4.67-.1-9.35-.01-14.33-1.73,6.36-2.4,12.72-4.8,19.08-7.2,34.8-13.12,69.58-26.29,104.4-39.33,44.08-16.51,104.35,14.31,116.21,59.68,19.06,72.87,37.83,145.81,56.7,218.73,.46,1.79,.77,3.63,1.34,6.36Zm-181.27-142.89c-30.15-.09-54.21,23.61-54.34,53.54-.13,30.2,24.2,54.78,54.14,54.7,29.69-.08,54.1-24.5,54.14-54.14,.03-29.87-24.03-54-53.94-54.09Z"/>
      <path class="cls-1" d="M1245.57,61.41c81.26,.06,146.62,65.39,146.64,146.59,.02,81.48-65.6,146.9-147.23,146.78-81.04-.12-146.38-65.78-146.28-147,.1-81.14,65.61-146.42,146.87-146.36Zm-21.15,20.56c-18-.02-30.56,9.57-32.46,26.16-.8,6.97-.04,14.52,1.78,21.33,15.21,57,30.7,113.93,46.5,170.77,1.95,7.02,5.4,13.94,9.53,19.97,9.55,13.97,24.25,16.97,40.08,9.18,14.12-6.95,18.97-19.4,13.97-35.82-.56-1.83-1.12-3.67-1.63-5.51-16.74-61.06-33.47-122.13-50.22-183.19-3.23-11.79-16.63-22.89-27.54-22.9Z"/>
    </g>
  </g>
</svg>