<?xml version="1.0" encoding="utf-8"?>
<!-- Generator: Adobe Illustrator 26.5.0, SVG Export Plug-In . SVG Version: 6.00 Build 0)  -->
<svg version="1.1" id="Layer_1" xmlns="http://www.w3.org/2000/svg" xmlns:xlink="http://www.w3.org/1999/xlink" x="0px" y="0px"
	 viewBox="0 0 390 361.2" style="enable-background:new 0 0 390 361.2;" xml:space="preserve">
<style type="text/css">
	.st0{fill:#689F63;}
</style>
<path class="st0" d="M160.6,359.5c-4.8,0-9.6-1.3-13.8-3.7l-44-26.1c-6.6-3.7-3.4-5-1.2-5.7c8.8-3.1,10.5-3.8,19.9-9.1
	c1-0.6,2.3-0.4,3.3,0.2l33.8,20.1c1.2,0.7,3,0.7,4.1,0l131.9-76.1c1.2-0.7,2-2.1,2-3.6V103.4c0-1.5-0.8-2.9-2-3.6l-131.8-76
	c-1.2-0.7-2.8-0.7-4.1,0l-131.8,76c-1.3,0.7-2.1,2.1-2.1,3.6v152.2c0,1.5,0.8,2.8,2,3.5l36.1,20.9c19.6,9.8,31.6-1.7,31.6-13.4
	V116.4c0-2.1,1.7-3.8,3.8-3.8H115c2.1,0,3.8,1.7,3.8,3.8v150.2c0,26.1-14.3,41.2-39,41.2c-7.6,0-13.6,0-30.4-8.3l-34.6-19.9
	c-8.6-5-13.8-14.2-13.8-24.1V103.4c0-9.9,5.3-19.1,13.8-24l132-76.1c8.4-4.7,19.4-4.7,27.7,0l131.8,76.2c8.6,5,13.8,14.1,13.8,24
	v152.2c0,9.9-5.3,19.1-13.8,24l-131.8,76.1C170.2,358.2,165.4,359.5,160.6,359.5"/>
<path class="st0" d="M201.3,254.7c-57.7,0-69.8-26.5-69.8-48.7c0-2.1,1.7-3.8,3.8-3.8h17c1.9,0,3.5,1.4,3.8,3.2
	c2.6,17.4,10.2,26.1,45.1,26.1c27.8,0,39.6-6.3,39.6-21c0-8.5-3.4-14.8-46.5-19c-36.1-3.6-58.4-11.5-58.4-40.4
	c0-26.6,22.4-42.4,60-42.4c42.2,0,63.1,14.7,65.8,46.1c0.2,2.1-1.4,4-3.5,4.1c-0.1,0-0.2,0-0.3,0h-17.1c-1.8,0-3.3-1.3-3.7-3
	c-4.1-18.3-14.1-24.1-41.2-24.1c-30.3,0-33.9,10.6-33.9,18.5c0,9.6,4.2,12.4,45.1,17.8c40.5,5.4,59.8,13,59.8,41.5
	c0,28.7-24,45.2-65.7,45.2 M361.7,93.5h4.4c3.6,0,4.3-2.5,4.3-4c0-3.9-2.7-3.9-4.2-3.9h-4.6L361.7,93.5z M356.3,81h9.8
	c3.4,0,10,0,10,7.5c0,5.2-3.4,6.3-5.4,7c3.9,0.3,4.2,2.8,4.7,6.5c0.3,2.3,0.7,6.2,1.5,7.5h-6c-0.2-1.3-1.1-8.6-1.1-9
	c-0.4-1.6-1-2.4-3-2.4h-5v11.4h-5.5V81z M344.6,95.2c0,11.8,9.5,21.4,21.3,21.4c11.8,0,21.4-9.8,21.4-21.4
	c0-11.8-9.7-21.3-21.4-21.3C354.2,73.9,344.5,83.2,344.6,95.2 M391.3,95.2c0,14-11.5,25.4-25.4,25.4c-13.9,0-25.4-11.3-25.4-25.4
	c0-14.4,11.8-25.4,25.4-25.4C379.5,69.8,391.2,80.9,391.3,95.2"/>
</svg>
